<svg xmlns="http://www.w3.org/2000/svg" width="600" height="400" viewBox="0 0 600 400">
  <style>
    .primary { fill: #0d6efd; }
    .secondary { fill: #6c757d; }
    .light { fill: #f8f9fa; }
    .white { fill: #ffffff; }
    .dark { fill: #343a40; }
  </style>
  
  <!-- 背景 -->
  <rect x="0" y="0" width="600" height="400" fill="#ffffff" />
  
  <!-- 大文档图标 -->
  <g transform="translate(50, 20)">
    <rect x="50" y="30" width="400" height="300" rx="10" ry="10" class="light" stroke="#dee2e6" stroke-width="2" />
    <rect x="80" y="70" width="340" height="40" rx="5" ry="5" class="white" stroke="#dee2e6" stroke-width="2" />
    <rect x="80" y="130" width="340" height="40" rx="5" ry="5" class="white" stroke="#dee2e6" stroke-width="2" />
    <rect x="80" y="190" width="340" height="40" rx="5" ry="5" class="white" stroke="#dee2e6" stroke-width="2" />
    <rect x="80" y="250" width="200" height="40" rx="5" ry="5" class="white" stroke="#dee2e6" stroke-width="2" />
  </g>
  
  <!-- AI生成文档图示 -->
  <g transform="translate(300, 170)">
    <circle cx="150" cy="0" r="80" class="primary" opacity="0.2" />
    <g transform="translate(150, 0) scale(0.8)">
      <path d="M-50,-20 L-30,-20 L-30,20 L-50,20 Z" class="primary" />
      <path d="M-20,-40 L0,-40 L0,40 L-20,40 Z" class="primary" />
      <path d="M10,-30 L30,-30 L30,30 L10,30 Z" class="primary" />
      <path d="M40,-10 L60,-10 L60,10 L40,10 Z" class="primary" />
    </g>
  </g>
  
  <!-- 小文档和箭头 -->
  <g transform="translate(450, 200)">
    <rect x="0" y="0" width="100" height="130" rx="5" ry="5" class="white" stroke="#0d6efd" stroke-width="2" />
    <line x1="20" y1="30" x2="80" y2="30" stroke="#0d6efd" stroke-width="2" />
    <line x1="20" y1="50" x2="80" y2="50" stroke="#0d6efd" stroke-width="2" />
    <line x1="20" y1="70" x2="80" y2="70" stroke="#0d6efd" stroke-width="2" />
    <line x1="20" y1="90" x2="60" y2="90" stroke="#0d6efd" stroke-width="2" />
  </g>
  
  <!-- 装饰元素 -->
  <g transform="translate(40, 150)">
    <circle cx="0" cy="0" r="20" class="primary" opacity="0.5" />
    <circle cx="0" cy="70" r="15" class="secondary" opacity="0.5" />
    <circle cx="0" cy="120" r="10" class="dark" opacity="0.5" />
  </g>
</svg> 