<svg xmlns="http://www.w3.org/2000/svg" width="600" height="400" viewBox="0 0 600 400">
  <style>
    .primary { fill: #0d6efd; }
    .secondary { fill: #6c757d; }
    .light { fill: #f8f9fa; }
    .white { fill: #ffffff; }
    .dark { fill: #343a40; }
  </style>
  
  <!-- 背景 -->
  <rect x="0" y="0" width="600" height="400" fill="#ffffff" />
  
  <!-- 左侧：本地模型 -->
  <g transform="translate(80, 150)">
    <rect x="0" y="0" width="160" height="130" rx="10" ry="10" class="light" stroke="#dee2e6" stroke-width="2" />
    
    <!-- CPU图标 -->
    <g transform="translate(80, 50)">
      <rect x="-30" y="-30" width="60" height="60" rx="5" ry="5" class="primary" />
      <rect x="-20" y="-20" width="40" height="40" rx="3" ry="3" class="white" />
      <line x1="-40" y1="-10" x2="-30" y2="-10" stroke="white" stroke-width="3" />
      <line x1="-40" y1="10" x2="-30" y2="10" stroke="white" stroke-width="3" />
      <line x1="30" y1="-10" x2="40" y2="-10" stroke="white" stroke-width="3" />
      <line x1="30" y1="10" x2="40" y2="10" stroke="white" stroke-width="3" />
      <line x1="-10" y1="-40" x2="-10" y2="-30" stroke="white" stroke-width="3" />
      <line x1="10" y1="-40" x2="10" y2="-30" stroke="white" stroke-width="3" />
      <line x1="-10" y1="30" x2="-10" y2="40" stroke="white" stroke-width="3" />
      <line x1="10" y1="30" x2="10" y2="40" stroke="white" stroke-width="3" />
    </g>
    
    <!-- Local标签 -->
    <text x="80" y="100" text-anchor="middle" font-family="Arial" font-size="16" font-weight="bold" class="dark">本地模型</text>
  </g>
  
  <!-- 右侧：第三方模型 -->
  <g transform="translate(360, 150)">
    <rect x="0" y="0" width="160" height="130" rx="10" ry="10" class="light" stroke="#dee2e6" stroke-width="2" />
    
    <!-- 云图标 -->
    <g transform="translate(80, 50)">
      <path d="M-40,10 C-40,-10 -20,-20 0,-10 C10,-30 40,-20 40,0 C50,10 40,30 20,30 L-20,30 C-40,30 -50,10 -40,10 Z" class="primary" />
    </g>
    
    <!-- Cloud标签 -->
    <text x="80" y="100" text-anchor="middle" font-family="Arial" font-size="16" font-weight="bold" class="dark">第三方模型</text>
  </g>
  
  <!-- 双向箭头 -->
  <g transform="translate(300, 180)">
    <line x1="-40" y1="0" x2="40" y2="0" stroke="#6c757d" stroke-width="3" />
    <polygon points="35,10 50,0 35,-10" class="secondary" />
    <polygon points="-35,10 -50,0 -35,-10" class="secondary" />
  </g>
  
  <!-- 装饰元素 -->
  <g>
    <circle cx="50" cy="50" r="20" class="primary" opacity="0.2" />
    <circle cx="550" cy="50" r="15" class="primary" opacity="0.2" />
    <circle cx="50" cy="350" r="15" class="secondary" opacity="0.2" />
    <circle cx="550" cy="350" r="20" class="secondary" opacity="0.2" />
  </g>
  
  <!-- 标题 -->
  <text x="300" y="80" text-anchor="middle" font-family="Arial" font-size="24" font-weight="bold" class="primary">模型切换</text>
</svg> 